<mxfile host="app.diagrams.net" modified="2022-11-25T20:12:21.494Z" agent="5.0 (Windows NT 10.0; Win64; x64) AppleWebKit/537.36 (KHTML, like Gecko) Chrome/107.0.0.0 Safari/537.36" etag="ImPcL69UFxvUegoAFiwT" version="20.3.0" type="github">
  <diagram id="CaYhcvyw5YV7a3vKD02K" name="Página-1">
    <mxGraphModel dx="1157" dy="600" grid="1" gridSize="10" guides="1" tooltips="1" connect="1" arrows="1" fold="1" page="1" pageScale="1" pageWidth="1169" pageHeight="1654" math="0" shadow="0">
      <root>
        <mxCell id="0" />
        <mxCell id="1" parent="0" />
        <mxCell id="uVIDc-lVseWQsJ-avKBJ-6" value="&lt;interface&gt;&#xa;SistemaBancario" style="swimlane;fontStyle=1;align=center;verticalAlign=top;childLayout=stackLayout;horizontal=1;startSize=40;horizontalStack=0;resizeParent=1;resizeParentMax=0;resizeLast=0;collapsible=1;marginBottom=0;" vertex="1" parent="1">
          <mxGeometry x="310" y="40" width="470" height="80" as="geometry" />
        </mxCell>
        <mxCell id="uVIDc-lVseWQsJ-avKBJ-8" value="" style="line;strokeWidth=1;fillColor=none;align=left;verticalAlign=middle;spacingTop=-1;spacingLeft=3;spacingRight=3;rotatable=0;labelPosition=right;points=[];portConstraint=eastwest;strokeColor=inherit;" vertex="1" parent="uVIDc-lVseWQsJ-avKBJ-6">
          <mxGeometry y="40" width="470" height="8" as="geometry" />
        </mxCell>
        <mxCell id="uVIDc-lVseWQsJ-avKBJ-9" value="+ hacerPago(nroTarjeta:int,vencimiento:Date,codSeguridad:int, monto:float): boolean" style="text;strokeColor=none;fillColor=none;align=left;verticalAlign=top;spacingLeft=4;spacingRight=4;overflow=hidden;rotatable=0;points=[[0,0.5],[1,0.5]];portConstraint=eastwest;" vertex="1" parent="uVIDc-lVseWQsJ-avKBJ-6">
          <mxGeometry y="48" width="470" height="32" as="geometry" />
        </mxCell>
        <mxCell id="uVIDc-lVseWQsJ-avKBJ-36" style="edgeStyle=orthogonalEdgeStyle;rounded=0;orthogonalLoop=1;jettySize=auto;html=1;exitX=1;exitY=0.75;exitDx=0;exitDy=0;entryX=0.007;entryY=0.419;entryDx=0;entryDy=0;entryPerimeter=0;fontFamily=Helvetica;fontSize=12;dashed=1;" edge="1" parent="1" source="uVIDc-lVseWQsJ-avKBJ-10" target="uVIDc-lVseWQsJ-avKBJ-26">
          <mxGeometry relative="1" as="geometry" />
        </mxCell>
        <mxCell id="uVIDc-lVseWQsJ-avKBJ-10" value="DatosTarjeta" style="swimlane;fontStyle=1;align=center;verticalAlign=top;childLayout=stackLayout;horizontal=1;startSize=26;horizontalStack=0;resizeParent=1;resizeParentMax=0;resizeLast=0;collapsible=1;marginBottom=0;" vertex="1" parent="1">
          <mxGeometry x="300" y="160" width="200" height="190" as="geometry" />
        </mxCell>
        <mxCell id="uVIDc-lVseWQsJ-avKBJ-11" value="- nro:int&#xa;- vencimiento:Date&#xa;- codSeguridad:int" style="text;strokeColor=none;fillColor=none;align=left;verticalAlign=top;spacingLeft=4;spacingRight=4;overflow=hidden;rotatable=0;points=[[0,0.5],[1,0.5]];portConstraint=eastwest;" vertex="1" parent="uVIDc-lVseWQsJ-avKBJ-10">
          <mxGeometry y="26" width="200" height="54" as="geometry" />
        </mxCell>
        <mxCell id="uVIDc-lVseWQsJ-avKBJ-12" value="" style="line;strokeWidth=1;fillColor=none;align=left;verticalAlign=middle;spacingTop=-1;spacingLeft=3;spacingRight=3;rotatable=0;labelPosition=right;points=[];portConstraint=eastwest;strokeColor=inherit;" vertex="1" parent="uVIDc-lVseWQsJ-avKBJ-10">
          <mxGeometry y="80" width="200" height="8" as="geometry" />
        </mxCell>
        <mxCell id="uVIDc-lVseWQsJ-avKBJ-13" value="+ DatosTarjeta(inro:int, &#xa;                        vencimiento:Date,&#xa;                        codSeguridad:int)&#xa;+ getCodSeguridad():int&#xa;+ getNro(): int&#xa;+ getVencimiento():Date" style="text;strokeColor=none;fillColor=none;align=left;verticalAlign=top;spacingLeft=4;spacingRight=4;overflow=hidden;rotatable=0;points=[[0,0.5],[1,0.5]];portConstraint=eastwest;fontFamily=Helvetica;fontSize=12;" vertex="1" parent="uVIDc-lVseWQsJ-avKBJ-10">
          <mxGeometry y="88" width="200" height="102" as="geometry" />
        </mxCell>
        <mxCell id="uVIDc-lVseWQsJ-avKBJ-14" value="Reserva" style="swimlane;fontStyle=1;align=center;verticalAlign=top;childLayout=stackLayout;horizontal=1;startSize=26;horizontalStack=0;resizeParent=1;resizeParentMax=0;resizeLast=0;collapsible=1;marginBottom=0;fontFamily=Helvetica;fontSize=12;" vertex="1" parent="1">
          <mxGeometry x="160" y="480" width="240" height="410" as="geometry" />
        </mxCell>
        <mxCell id="uVIDc-lVseWQsJ-avKBJ-15" value="- nombreResponsable:String &#xa;- apellidoResponsable: String &#xa;- dniResponsable:int &#xa;- fecha: Date&#xa;- tarjeta:DatosTarjeta &#xa;- canchaReservada: Cancha &#xa;- total:float&#xa;- pagado: boolean&#xa;" style="text;strokeColor=none;fillColor=none;align=left;verticalAlign=top;spacingLeft=4;spacingRight=4;overflow=hidden;rotatable=0;points=[[0,0.5],[1,0.5]];portConstraint=eastwest;fontFamily=Helvetica;fontSize=12;" vertex="1" parent="uVIDc-lVseWQsJ-avKBJ-14">
          <mxGeometry y="26" width="240" height="134" as="geometry" />
        </mxCell>
        <mxCell id="uVIDc-lVseWQsJ-avKBJ-16" value="" style="line;strokeWidth=1;fillColor=none;align=left;verticalAlign=middle;spacingTop=-1;spacingLeft=3;spacingRight=3;rotatable=0;labelPosition=right;points=[];portConstraint=eastwest;strokeColor=inherit;fontFamily=Helvetica;fontSize=12;" vertex="1" parent="uVIDc-lVseWQsJ-avKBJ-14">
          <mxGeometry y="160" width="240" height="8" as="geometry" />
        </mxCell>
        <mxCell id="uVIDc-lVseWQsJ-avKBJ-17" value=" + Reserva(  nombreResponsable:String,&#xa;                    apellidoResponsable:String,&#xa;                    dniResponsable:int,&#xa;                    fecha:Date,&#xa;                    tarjeta: DatosTarjeta,&#xa;                    canchaReservada: Cancha,&#xa;                    total:float)&#xa;+ realizarPago(porcentaje:float): void&#xa;+ getSistemaBancario():SistemaBancario&#xa;+ getFecha():Date" style="text;strokeColor=none;fillColor=none;align=left;verticalAlign=top;spacingLeft=4;spacingRight=4;overflow=hidden;rotatable=0;points=[[0,0.5],[1,0.5]];portConstraint=eastwest;fontFamily=Helvetica;fontSize=12;" vertex="1" parent="uVIDc-lVseWQsJ-avKBJ-14">
          <mxGeometry y="168" width="240" height="242" as="geometry" />
        </mxCell>
        <mxCell id="uVIDc-lVseWQsJ-avKBJ-18" value="Cancha" style="swimlane;fontStyle=1;align=center;verticalAlign=top;childLayout=stackLayout;horizontal=1;startSize=26;horizontalStack=0;resizeParent=1;resizeParentMax=0;resizeLast=0;collapsible=1;marginBottom=0;fontFamily=Helvetica;fontSize=12;" vertex="1" parent="1">
          <mxGeometry x="560" y="480" width="240" height="340" as="geometry" />
        </mxCell>
        <mxCell id="uVIDc-lVseWQsJ-avKBJ-19" value="- deporte:String&#xa;- ubicacion:Object &#xa;- diasApertura:List&lt;Date&gt;&#xa;- horarioApertura:Time &#xa;- horarioCierre:Time&#xa;- duracionTurno: Time&#xa;- reservas:List&lt;Reserva&gt; &#xa;- id: long&#xa;" style="text;strokeColor=none;fillColor=none;align=left;verticalAlign=top;spacingLeft=4;spacingRight=4;overflow=hidden;rotatable=0;points=[[0,0.5],[1,0.5]];portConstraint=eastwest;fontFamily=Helvetica;fontSize=12;" vertex="1" parent="uVIDc-lVseWQsJ-avKBJ-18">
          <mxGeometry y="26" width="240" height="134" as="geometry" />
        </mxCell>
        <mxCell id="uVIDc-lVseWQsJ-avKBJ-20" value="" style="line;strokeWidth=1;fillColor=none;align=left;verticalAlign=middle;spacingTop=-1;spacingLeft=3;spacingRight=3;rotatable=0;labelPosition=right;points=[];portConstraint=eastwest;strokeColor=inherit;fontFamily=Helvetica;fontSize=12;" vertex="1" parent="uVIDc-lVseWQsJ-avKBJ-18">
          <mxGeometry y="160" width="240" height="8" as="geometry" />
        </mxCell>
        <mxCell id="uVIDc-lVseWQsJ-avKBJ-21" value="+ addReserva(r: Reserva): void&#xa;- getReservaProxDias&#xa;            (nroDias: int):List&lt;Reserva&gt; &#xa;- listarCaracteristicas(): Object &#xa;- getReserva(date: Date): Reserva &#xa;- removeReserva(date:Date): Reserva&#xa;" style="text;strokeColor=none;fillColor=none;align=left;verticalAlign=top;spacingLeft=4;spacingRight=4;overflow=hidden;rotatable=0;points=[[0,0.5],[1,0.5]];portConstraint=eastwest;fontFamily=Helvetica;fontSize=12;" vertex="1" parent="uVIDc-lVseWQsJ-avKBJ-18">
          <mxGeometry y="168" width="240" height="172" as="geometry" />
        </mxCell>
        <mxCell id="uVIDc-lVseWQsJ-avKBJ-23" value="AdministradorDeReservas" style="swimlane;fontStyle=1;align=center;verticalAlign=top;childLayout=stackLayout;horizontal=1;startSize=26;horizontalStack=0;resizeParent=1;resizeParentMax=0;resizeLast=0;collapsible=1;marginBottom=0;fontFamily=Helvetica;fontSize=12;" vertex="1" parent="1">
          <mxGeometry x="800" y="160" width="240" height="290" as="geometry" />
        </mxCell>
        <mxCell id="uVIDc-lVseWQsJ-avKBJ-25" value="" style="line;strokeWidth=1;fillColor=none;align=left;verticalAlign=middle;spacingTop=-1;spacingLeft=3;spacingRight=3;rotatable=0;labelPosition=right;points=[];portConstraint=eastwest;strokeColor=inherit;fontFamily=Helvetica;fontSize=12;" vertex="1" parent="uVIDc-lVseWQsJ-avKBJ-23">
          <mxGeometry y="26" width="240" height="8" as="geometry" />
        </mxCell>
        <mxCell id="uVIDc-lVseWQsJ-avKBJ-26" value="+crearReserva(&#xa;            nombreResponsable:String,&#xa;            apellidoResponsable:String,&#xa;            dniResponsable:int,&#xa;            fecha:Date,&#xa;            nroTarjeta:int,&#xa;            vencimientTarjeta:Date,&#xa;            codSeguridad:int,&#xa;            canchaReservada:Cancha,&#xa;            total:float)&#xa;+ cancelarReserva(&#xa;            date Date,&#xa;            cancha: Cancha):void&#xa;+ informarNoPresentacion(&#xa;            date: Date,&#xa;            cancha: Cancha):void" style="text;strokeColor=none;fillColor=none;align=left;verticalAlign=top;spacingLeft=4;spacingRight=4;overflow=hidden;rotatable=0;points=[[0,0.5],[1,0.5]];portConstraint=eastwest;fontFamily=Helvetica;fontSize=12;" vertex="1" parent="uVIDc-lVseWQsJ-avKBJ-23">
          <mxGeometry y="34" width="240" height="256" as="geometry" />
        </mxCell>
        <mxCell id="uVIDc-lVseWQsJ-avKBJ-38" style="edgeStyle=orthogonalEdgeStyle;rounded=0;orthogonalLoop=1;jettySize=auto;html=1;exitX=1;exitY=0.5;exitDx=0;exitDy=0;entryX=0;entryY=0.5;entryDx=0;entryDy=0;fontFamily=Helvetica;fontSize=12;" edge="1" parent="1" source="uVIDc-lVseWQsJ-avKBJ-15" target="uVIDc-lVseWQsJ-avKBJ-19">
          <mxGeometry relative="1" as="geometry" />
        </mxCell>
        <mxCell id="uVIDc-lVseWQsJ-avKBJ-39" style="edgeStyle=orthogonalEdgeStyle;rounded=0;orthogonalLoop=1;jettySize=auto;html=1;exitX=0.563;exitY=0;exitDx=0;exitDy=0;fontFamily=Helvetica;fontSize=12;dashed=1;exitPerimeter=0;entryX=-0.01;entryY=0.669;entryDx=0;entryDy=0;entryPerimeter=0;" edge="1" parent="1" source="uVIDc-lVseWQsJ-avKBJ-14" target="uVIDc-lVseWQsJ-avKBJ-26">
          <mxGeometry relative="1" as="geometry">
            <mxPoint x="250" y="312.5" as="sourcePoint" />
            <mxPoint x="550" y="380" as="targetPoint" />
            <Array as="points">
              <mxPoint x="340" y="480" />
              <mxPoint x="340" y="400" />
              <mxPoint x="690" y="400" />
              <mxPoint x="690" y="365" />
            </Array>
          </mxGeometry>
        </mxCell>
        <mxCell id="uVIDc-lVseWQsJ-avKBJ-40" style="edgeStyle=orthogonalEdgeStyle;rounded=0;orthogonalLoop=1;jettySize=auto;html=1;exitX=1;exitY=0.5;exitDx=0;exitDy=0;fontFamily=Helvetica;fontSize=12;dashed=1;entryX=0.568;entryY=1.023;entryDx=0;entryDy=0;entryPerimeter=0;" edge="1" parent="1" source="uVIDc-lVseWQsJ-avKBJ-19" target="uVIDc-lVseWQsJ-avKBJ-26">
          <mxGeometry relative="1" as="geometry">
            <mxPoint x="305.1199999999999" y="490" as="sourcePoint" />
            <mxPoint x="807.6000000000001" y="375.264" as="targetPoint" />
            <Array as="points">
              <mxPoint x="936" y="573" />
            </Array>
          </mxGeometry>
        </mxCell>
        <mxCell id="uVIDc-lVseWQsJ-avKBJ-41" style="edgeStyle=orthogonalEdgeStyle;rounded=0;orthogonalLoop=1;jettySize=auto;html=1;exitX=0;exitY=0.5;exitDx=0;exitDy=0;fontFamily=Helvetica;fontSize=12;dashed=1;entryX=0;entryY=0.25;entryDx=0;entryDy=0;" edge="1" parent="1" source="uVIDc-lVseWQsJ-avKBJ-15" target="uVIDc-lVseWQsJ-avKBJ-6">
          <mxGeometry relative="1" as="geometry">
            <mxPoint x="305.1199999999999" y="490" as="sourcePoint" />
            <mxPoint x="807.6000000000001" y="375.264" as="targetPoint" />
            <Array as="points">
              <mxPoint x="90" y="573" />
              <mxPoint x="90" y="60" />
            </Array>
          </mxGeometry>
        </mxCell>
        <mxCell id="uVIDc-lVseWQsJ-avKBJ-42" style="edgeStyle=orthogonalEdgeStyle;rounded=0;orthogonalLoop=1;jettySize=auto;html=1;exitX=0.129;exitY=-0.003;exitDx=0;exitDy=0;entryX=0;entryY=0.5;entryDx=0;entryDy=0;fontFamily=Helvetica;fontSize=12;exitPerimeter=0;" edge="1" parent="1" source="uVIDc-lVseWQsJ-avKBJ-14">
          <mxGeometry relative="1" as="geometry">
            <mxPoint x="140" y="240" as="sourcePoint" />
            <mxPoint x="300" y="240" as="targetPoint" />
            <Array as="points">
              <mxPoint x="191" y="240" />
            </Array>
          </mxGeometry>
        </mxCell>
        <mxCell id="uVIDc-lVseWQsJ-avKBJ-43" value="SE PAGA CON" style="text;html=1;strokeColor=none;fillColor=none;align=center;verticalAlign=middle;whiteSpace=wrap;rounded=0;fontFamily=Helvetica;fontSize=12;" vertex="1" parent="1">
          <mxGeometry x="130" y="200" width="110" height="30" as="geometry" />
        </mxCell>
        <mxCell id="uVIDc-lVseWQsJ-avKBJ-44" value="ES PARA UNA" style="text;html=1;strokeColor=none;fillColor=none;align=center;verticalAlign=middle;whiteSpace=wrap;rounded=0;fontFamily=Helvetica;fontSize=12;" vertex="1" parent="1">
          <mxGeometry x="400" y="540" width="110" height="30" as="geometry" />
        </mxCell>
      </root>
    </mxGraphModel>
  </diagram>
</mxfile>
